<?xml version="1.0" encoding="UTF-8"?>
<svg id="Layer_2" data-name="Layer 2" xmlns="http://www.w3.org/2000/svg" viewBox="0 0 395.95 422.98">
  <g id="Layer_1-2" data-name="Layer 1">
    <path d="M90.33,61.4c6.5-2.09,13.5-.17,18.5-6.39,2.93-3.64-1.21-8.32,7.04-13.81,1.45-.96,12.52-5.71,10.33-1.25-1.3,2.63-11.27,5.11-10.4,11.01,4.2-.52,7.14-1.96,11.57-2.31-4.57,5.9-16.52,3.92-18.51,12.74,15.27-2.37,35.24-7.34,43.97,9.27-9.36-7.03-20.33-8.63-31.87-8.16-7.74.32-20.45,3.21-28.07,5.49-23.01,6.89-37.05,34.33-38.42,57.11,1.9-.11,3.9.18,5.79,0-1.91,3.82-7.25,2.39-6.96,7.42.1,1.67,5.54,12.23,6.38,12.25,2.36.05,1.54-6.57,1.74-8.09,4.18,4.54,6.77.14,11.57,0-1.91,2.43-3.76,7.27-3.47,10.43,4.57-1.89,4.82-8.93,10.41-8.1l-1.15,12.74c-1.52-.39-8.79-2.14-9.17-2.43-.46-.34.11-2.06-.09-2.21-.63-.49-4.55,1.13-5.79,1.16-1.09.02-3.3-1.4-3.46-1.16.17,2.25-.28,4.76-.01,6.95-4.9-.17-3.8,7.96-3.47,11.02,2.62,24.28,28.94,59.52,49.86,71.72,13.99,8.16,41.49,15.38,55.45,4.15-.37,7.17,1.94,15.03,2.31,22.01-7.46,1.15-13.62,4.9-21.42,4.71-12.02-.3-22.81-7.04-33.83-9.07-2.18-.4-6.14-1.6-6.13,1.46.02,6.09,5.5,20.81,10.5,24.28,6.24,4.33,25.21,6.25,32.66,4.99,4.66-.79,17.15-7.87,18.21-12.47,13.67,25.35-33.74,32.55-46.28,18.54-.79,1.02,6.31,23.62,6.93,24.75.65,1.18,1.99,1.07,2.88.73,4.45-1.73-2.89-12.05-2.92-15.61-.04-3.75,2.1-.6,2.93-.6h21.99c3.42,0,14.01-8.77,17.33-4.61,6.79,8.52,3.42,22.44,4.03,33.04,1.17,20.61,1.61,40.75,2.31,61.4.15,4.28,3.1,21.1,1.34,23.21-1.64,1.96-6.12,1.1-5.92,5.12-3.08,0-6.18,0-9.26,0-.04-3.57-3.71-5.87-4.39-8.93-.8-3.62.48-7.76-.48-11.1-.43-1.51-2.8-3.47-3.85-6.58-3.19-9.51-1.26-22.01-4.34-31.57-1.19-3.7-3.72-5.96-4.87-9.02-3.39-8.99-1.99-20.52-10.99-27.79,3.41,32.34,21.29,61.97,20.82,94.99H.07c.15-2.28-.22-4.68,0-6.95,5.01-52.24,7.27-113.48,54.49-145.29,3.7-2.49,28.14-17.87,29.99-18.05,4.5-.46,9.19,2.02,13.89,1.15.25-4.08-4.13-24.59-9.26-15.05-3.36-7.89-12.88-11.06-19.07-16.24-5.71-4.79-14.08-17.68-20.25-19.16-10.15-2.43.7,10.23-1.67,13.44-4.61,6.24-16.87-9.89-18.3-14.26-.61-1.86-2.39-7.97.26-8.95-.35,3.7,9.93,23.67,13.9,19.68-1.21-6.56-2.91-13.26-4.62-19.69,9.79-5.22,6.79-11.95,8.24-20.14,1.63-9.21,5.66-17.95,5.64-27.36-13.88,6.56-11.25-2.06-13.88-11.59,3.39.63,2.48-1.7,2.19-3.9-.21-1.67-1.82-11.82-2.2-12.32-1.17-1.52-3.2,1.56-3.47,2.32-2.3-10.27-2.57-7.36-7.51-13.91-2.1-2.79-1.55-7.47-5.22-9.26,1.76-8.7,7.96-30.94,12.49-37.89s5.06,2.02,4.87,6.61c-.06,1.49-2.12,4.56-1.16,6.95h4.63c-2.07,6.02-8.8,21.61-9.21,26.21-.37,4.05,1.78,7.91,1.13,12.02.12.17,3.36-2.13,3.46-2.32,1.36,1.11,4.51,1.54,5.5,2.6,1.7,1.83,1.09,6.88,3.75,7.81,2.58-19.11,10.4-40.26,28.16-50.01,1.67-.92,10.29-5.35,10.89-5.52,2.31-.65,5.79.14,8.4-1.24.07-2.09-4.31-1.1-5.78-1.14ZM108.84,347.53c-2.26-16.27-11.73-29.88-19.11-43.99-1.8-3.43-9.31-21.4-10.28-22.14-9.45-7.25-39.53,15.34-30.44,26.42,3.92,4.77,19.39,7.43,25.44,9.85,11.27,4.53,17.87,16.48,26.42,24.53.92.86,7.2,6.18,7.98,5.33ZM71.82,381.14v-23.75c0-.55-1.42-3.56-2.31-2.9v23.75c0,.72,1.86,3.91,2.31,2.9Z" style="fill: #c5d4f6;"/>
    <path d="M137.78,0c-5.35,3.24-13.18,3.23-18.52,0h18.52Z" style="fill: #c5d4f6;"/>
    <path d="M291.69,210.84c-.26-5.46-.06-24.54,2.96-28.89.84-1.21,2.91-1.53,3.48-2.39,1.38-2.07-6.46-18.96-7.32-22.85-2.87-12.94.6-27.1-3.14-39.72-2.41-8.15-10.12-12.95-8.69-21.98,2.74,2.24,4.39,6.03,6.88,8.74,2.26,2.45,6.83,4.13,7.88,7.17,3.26,9.47.16,23.06,1.71,33.04,1,6.44,5.65,13.24,7.29,19.34,4.39,16.32-1.39,20.99,21.92,18.57,10.11-1.05,7.69-5.19,12.45-7.23,4.73-2.02,10.91.16,15.85-3.83l42.87-57.27c.34,2.83-.05,4.82-1.31,7.36-3.74,7.57-15.97,20.34-21.61,28.18-4.46,6.2-7.68,14.08-12.46,19.96-3.91,4.8-9.41,7.19-11.84,12.5,2.8,14.64,6.56,29.2,8.88,43.94,5.51,34.97,14.36,86.27,4.79,119.74-5.37-.64-6.28,6.12-8.76,9.19-6.61,8.19-12.22,10.42-22.95,9.22-18.24-2.04-62.65-28.93-75.38-42.66-10.68-11.51-18.44-30.25-36.41-31.35-1.45,7.82,3.77,13.03,6.11,19.95,5.1,15.1,5.79,37.42,6.66,53.57,1.03,19.06-2,39.03,4.58,57.39-.14.12.64,2.83-1.66,2.41-17.96-.12-35.94-.17-53.89-.1.98-6.08-.98-12.21-1.2-17.91-.89-22.1,1.34-45.26.04-67.23-1.55-25.98-10.15-51.49-11.5-77.55.93-6.12,9.2-10.12,13.26-14.55,2.92-3.18,10.86-13.81,12.66-17.45,2.63-5.32,1.39-14.21,8.74-13.83v8.11c1.83.95,4.22-1.15,4.63-1.16,5.86-.09,17.58,5.07,21.99,2.32,2.62-1.64,2.44-2.67,2.33-5.79h1.13s1.17,2.31,1.17,2.31c-.11,1.23-.18,2.6.22,3.78,1.57,4.59,18.84,12.36,23.76,15.65,11.8,7.9,21.78,18.3,33.88,25.75.34,7,1.32,13.94,2.31,20.85-9.82-5.23-16.44-16.29-24.29-23.76-11.45-10.91-23.94-18.55-39.08-23.44-3.74-1.21-11.22-4.87-14.28-.99-7.13,9.06,13.48,20.28,18.68,25.54,8.8,8.9,14.87,20.82,25.5,28.92s24.46,10.42,36.93,12.26c.5,2.3-.18,7.89,4.63,6.37.88-15.14-2.82-30.09-3.53-45.13-.87-18.53,1.43-37.2-2.28-55.55l-4.62.47Z" style="fill: #c5d4f6;"/>
    <path d="M195.64,98.47c5.48,8.09,15.88,15.77,17.25,26.16,1.76,13.35-7.48,9.88-7.94,17.33-.21,3.38,2.06,8.92,2.25,12.71.39,7.86-.1,15.86.02,23.73.22,14.27-.16,28.6,0,42.86-.42,0-2.81,2.11-4.62,1.16v-8.11c-7.35-.37-6.12,8.52-8.75,13.83-1.8,3.64-9.74,14.27-12.66,17.45-4.06,4.43-12.33,8.43-13.26,14.55,1.36,26.06,9.96,51.58,11.5,77.55,1.31,21.97-.92,45.13-.04,67.23.23,5.69,2.19,11.83,1.2,17.91-3.85.02-7.72-.01-11.57,0-.2-4.03,4.28-3.16,5.92-5.12,1.76-2.12-1.19-18.93-1.34-23.21-.7-20.65-1.14-40.79-2.31-61.4-.6-10.6,2.77-24.52-4.03-33.04-3.32-4.17-13.91,4.61-17.33,4.61h-21.99c-.83,0-2.97-3.15-2.93.6.03,3.56,7.37,13.88,2.92,15.61-.89.35-2.23.46-2.88-.73s-7.71-23.73-6.93-24.75c12.53,14.02,59.95,6.81,46.28-18.54.61-2.64.17-10.64,0-13.9-.37-6.98-2.69-14.84-2.31-22.01,1.22-.98,3.96-4.66,6.94-6.95,13.12-10.09,22.17-18.2,26.94-35.01,1.28-4.52,2.34-17.3,4.19-19.92.91-1.28,3.3-.03,3.66-1.33.66-2.37.17-17.24-.09-20.77-.5-6.73-2.28-13.66-3.47-20.28-2.64-.21-6.5,5.64-6.93,5.79-1.46.53-20.22,4.39-22.56,4.64-3.75.41-20.06.63-22.93-.23-3.84-1.16-10.58-18.17-10.11-22.89-.93-.88-16.55,1.47-17.15,2.42,2.29,27.91-4.68,30.98-29.82,34.44-8.45,1.16-29.07,4.93-30.51-6.79-.27-2.2.18-4.7.01-6.95.16-.24,2.38,1.18,3.46,1.16-.19,2.58.36,9.36,3.05,10.27,6.19,2.09,23.51-1.74,30.51-3.32,15.69-3.53,22.02-1.98,19.37-21.13-.64-4.63-1.67-8.55-5.49-11.3-1.53-1.1-1.59-1.87-4.08-2.26-7.57-1.17-39.22,3.36-44.05,9.1-2.37,2.81-1.26,4.2-1.63,7.06-.19,1.52.62,8.13-1.74,8.09-.84-.02-6.29-10.58-6.38-12.25-.29-5.03,5.05-3.6,6.96-7.42,14.59-1.4,37.25-12.12,51.47-6.92,4.29,1.57,4.32,4.77,10.09,4.35,2.49-.18,14.68-3.1,16.35-4.3,1.41-1.02,1.65-3.73,3.06-5.33,6.88-7.81,25.84-4.82,34.76-8.66.94-.41,1.69-.92,2.31-1.76.48-1.96-1.65-2.14-2.31-2.88-.36-.4-.78-.77-1.16-1.16-5.6-5.73-2.96-3.83-5.42-10.21-2.94-7.63-4.5-5.05-8.47-8.32-3.36-2.76-4.78-6.78-8.1-9.27-8.73-16.61-28.7-11.64-43.97-9.27,1.99-8.82,13.94-6.84,18.51-12.74,39.55-3.11,40.5,23.36,62.5,45.75,1.67,1.7,3.87,2.71,5.78,4.07ZM142.41,122.8c-.15,5.72,2.74,18.67,8.39,21.13,2.71,1.18,7.57,2.07,8.97-1.43-10.5,2.71-15.11-12.48-10.41-19.71.2-.31,5.06-4.19,5.79-4.63,7.1.68,19.57-2.2,24.92,3.43,8.4,8.85-6.17,1.09-8.19,1.08-1.72,0-1.45,1.47-2.67,2.33-.63.44-2.25-.09-2.47.13-.93.92,3.98,10.03,2.3,12.73h3.46s-1.14-10.43-1.14-10.43l3.46,5.78c-.26.31.7,3.73-1.66,5.87-1.66,1.51-5.35,2.03-7.6,2.25-.38.37,1,1.92,1.85,2.07,3.04.56,17.52-3.09,21.3-4.4,6.75-2.35,9.36-2.41,8.03-10.94-.68-4.34-9.59-19.37-13.81-20.34-6.42-1.48-37.03,3.07-39.9,9.31-.94,2.04-.55,3.71-.6,5.75ZM159.76,132.06c.06-3.86-3.69-5.11-6.93-4.62-1.12,5.8,2.17,6.09,6.93,4.62Z" style="fill: #677ead;"/>
    <path d="M236.15,420.52c-6.58-18.36-3.55-38.33-4.58-57.39-.88-16.15-1.57-38.47-6.66-53.57-2.33-6.91-7.55-12.13-6.11-19.95,17.97,1.1,25.73,19.84,36.41,31.35,12.73,13.73,57.14,40.62,75.38,42.66,10.73,1.2,16.33-1.03,22.95-9.22,2.48-3.07,3.39-9.83,8.76-9.19-11.95,41.81-51.23,25.8-78.59,9.75-5.99-3.52-44.28-30.52-47.5-28.26-1.58,4.63-1.38,9.64-1.24,14.5.67,23.46,2.7,47.07,3.52,70.6.09,2.45,2.12,5.36.63,7.6-.69,1.04-2.61.81-2.94,1.1Z" style="fill: #677ead;"/>
    <path d="M215.32,82.25c.47,7.96-.88,16.51,1.16,24.33,1.41,5.84-1.72,13.92-1.14,19,.52,4.55,5.7,8.32,4.66,13.97-.19,1.03-3.54.4-5.35,1.68-6.34,4.5-3.14,25.46-4.08,33.03-.24,1.95-.5,4.78-3.35,4.14-.12-7.87.37-15.87-.02-23.73-.19-3.79-2.46-9.33-2.25-12.71.47-7.45,9.71-3.98,7.94-17.33-1.37-10.39-11.77-18.07-17.25-26.16-4.6-6.79-13.96-22.16-16.18-29.56-1.9-6.34,10.14,8.76,8.08-.56.35,1.13,8.91,18.06,9.85,18.53,1.7.85,2.73-2.47,3.27-3.61,2.51-5.34,2.65-8.62-1.48-13.24-3.15-3.52-8.65-5.3-11.64-7.47-1.65-1.2-2.51-3.98-3.47-5.78,2-.27,3.62.16,5.46.89,2.07.83,15.46,12.79,16.59,14.67,1.53,2.55-.14,5.96,3.4,5.27-.79-10.78-7.22-18.6-12.7-27.23,11.48,4.61,17.81,20.26,18.49,31.87Z" style="fill: #c5d4f6;"/>
    <path d="M35.95,120.48c1.21,5.38,2.08,8.85,3.47,13.9,2.63,9.53,0,18.14,13.88,11.59.02,9.41-4,18.15-5.64,27.36-1.45,8.19,1.56,14.91-8.24,20.14-.17-.65.16-1.62,0-2.32-1.06-4.68-3.64-8.22-6.94-11.58,1.87-3.66.54-8.16,1.16-11.58.14-.79.83-2.43,1.16-3.48s3.46-3.07,2.29-5.75c-1.37-.98-6.49-.92-6.91-1.2-.24-.16-.43-4.27-3.47-3.48-1.98-23.24-9.03-29.28-3.47-56.77,3.66,1.78,3.12,6.47,5.22,9.26,4.94,6.55,5.21,3.64,7.51,13.91Z" style="fill: #677ead;"/>
    <path d="M81.08,61.4c1.15-.08,2.32.03,3.47,0,1.92-.05,3.87-.06,5.79,0,1.47.04,5.84-.95,5.78,1.14-2.61,1.38-6.1.59-8.4,1.24-.6.17-9.22,4.6-10.89,5.52-17.76,9.76-25.58,30.91-28.16,50.01-2.66-.93-2.05-5.98-3.75-7.81-.99-1.06-4.14-1.49-5.5-2.6,1.87-3.62,3.6-11.8,5.95-16.63,7.23-14.86,18.48-29.7,35.71-30.86Z" style="fill: #677ead;"/>
    <path d="M291.69,210.84l4.62-.47c3.71,18.35,1.41,37.02,2.28,55.55.7,15.04,4.41,29.99,3.53,45.13-4.81,1.53-4.13-4.07-4.63-6.37-1.21-5.55-2.67-12.98-3.47-18.54-1-6.91-1.97-13.85-2.31-20.85-.64-13.05-.69-26.32-1.16-39.39,3.59,1.39,2.6-7.77,2.28-11.02-.18-1.87-1.12-1.62-1.12-1.72-.05-.77.04-1.55,0-2.32Z" style="fill: #677ead;"/>
    <path d="M159.77,422.84c-2.7,0-5.4,0-8.1,0,.47-33.02-17.41-62.66-20.82-94.99,9.01,7.27,7.6,18.81,10.99,27.79,1.16,3.06,3.68,5.33,4.87,9.02,3.08,9.56,1.14,22.06,4.34,31.57,1.04,3.11,3.41,5.07,3.85,6.58.96,3.34-.32,7.48.48,11.1.68,3.07,4.35,5.36,4.39,8.93Z" style="fill: #677ead;"/>
    <path d="M248.87,169.14c1.13,20.36-13.38,32.34-15.04,50.97l-1.17-2.31h-1.13c.12,3.11.29,4.15-2.33,5.78-.83-3.51-1.03-6.82-1.16-10.43,5.71-1.82,7.16-8.86,9.26-13.9,3.44-8.24,9.15-21.5,9.26-30.12h2.31Z" style="fill: #677ead;"/>
    <path d="M187.54,62.56c2.99,2.17,8.49,3.95,11.64,7.47,4.13,4.62,3.99,7.9,1.48,13.24-.54,1.14-1.56,4.45-3.27,3.61-.94-.47-9.5-17.39-9.85-18.53-.43-1.38.3-4.12,0-5.79Z" style="fill: #677ead;"/>
    <path d="M87.44,50.97c1.4-.3,4.04-3.11,6-3.29,3.84-.35,9.73,10.94,3.27,11.43-7.65.58-22.15-9.26-31.83-5.83-.08-.74,1.54-2.31,1.74-2.31,5.46,0,16.26.96,20.83,0Z" style="fill: #c5d4f6;"/>
    <path d="M89.18,238.64c5.13-9.54,9.51,10.97,9.26,15.05-4.7.87-9.39-1.61-13.89-1.15.95-4.03,2.75-10.4,4.63-13.9Z" style="fill: #677ead;"/>
    <path d="M237.3,199.26c-2.1,5.04-3.55,12.08-9.26,13.9-.14-4.07.77-10.91-.02-14.28-.23-1-2.52-.39-2.43-2.49.16-3.45,3.91-5.95,1.3-11.04,6.41,2.56,3.6,12.89,10.4,13.9Z" style="fill: #c5d4f6;"/>
    <path d="M30.16,157.55l-1.16,6.95h5.79c-.33,1.05-1.02,2.69-1.16,3.48l-4.63-.58c.18,3.01-.72,9.86,1.44,11.93.54.51,1.88.07,2.03.23,3.3,3.37,5.88,6.9,6.94,11.58-4.15-1.1-5.73-4.64-10.41-2.32-2.54-11.49-1.36-23.46-2.32-34.75,3.04-.79,3.23,3.32,3.47,3.48Z" style="fill: #c5d4f6;"/>
    <path d="M371.54,86.89c-4.63,5.15-8.5,19.54-14.69,26.38-4.3,4.75-4.07.28-2.51-3.64,3.48-8.75,12.51-18.47,14.89-23.9l2.31,1.16Z" style="fill: #677ead;"/>
    <path d="M349.55,83.41c-.32.54-.04,2.81-.9,4.26-4.27,7.15-6.9,17-14.71,21.24-.69-9.96,8.35-17.62,12.14-25.5h3.47Z" style="fill: #677ead;"/>
    <path d="M222.26,110.05h-3.47c-.34-1.05-2.08-2.57-2.31-3.48-2.04-7.82-.69-16.37-1.16-24.33,6.54,6.75,4.85,19.14,6.94,27.8Z" style="fill: #677ead;"/>
    <path d="M346.08,83.41c.48-1,4.21-15.85,6.94-12.75l.58,3.48c1.64-1.36,5.87-10.08,6.96-10.43,2.32-.73,1.93,1.36,1.54,2.71-1.81,6.2-9.91,12.48-12.54,17h-3.47Z" style="fill: #c5d4f6;"/>
    <path d="M153.98,33.6c-1.33-.36-2.52.24-4.15-1.06-1.36-1.09-1.15-2.36-1.63-3.57,4.31-1.3,13.99-2.5,17.34.6,1.01.94,1.99,1.55.63,2.9-4.17,2.98-7.63,2.36-12.18,1.13Z" style="fill: #677ead;"/>
    <path d="M222.26,110.05c1.37,5.67,5.26,11.68,6.73,17.03.37,1.36.84,3.41-1.51,2.67-2.55-.8-7.64-16.45-8.69-19.7h3.47Z" style="fill: #c5d4f6;"/>
    <path d="M60.25,38.23c-.49,3.34-4.16,6.74-6.41,3.51-1.6-2.29.87-7.95,1.79-10.46,4.81-.67,5.22,2.95,4.63,6.95Z" style="fill: #677ead;"/>
    <path d="M60.25,38.23c.59-4,.19-7.62-4.63-6.95.99-2.7.58-5.5,4.62-6.95-1.78,6.14,13.82,13.09.01,13.9Z" style="fill: #c5d4f6;"/>
    <path d="M110,5.8c-2.09,8.97-12.57,13.37-18.5,5.2,3.14-2.18,6.31,2.12,9.28,1.29,2.33-.65,7.84-7.92,9.22-6.49Z" style="fill: #c5d4f6;"/>
    <path d="M40.57,66.03l5.79,2.33c.55,2.19-1.77,3.02-2.32,4.62h-4.63c-.96-2.39,1.1-5.46,1.16-6.95Z" style="fill: #677ead;"/>
    <path d="M248.87,169.14h-2.31c.06-4.78-1.82-9.25-.58-13.91,3.06,4.37,2.62,9.01,2.89,13.91Z" style="fill: #c5d4f6;"/>
    <path d="M291.69,213.16c0,.1.94-.15,1.12,1.72.32,3.26,1.31,12.42-2.28,11.02-.14-4.01-.82-9.42,1.16-12.74Z" style="fill: #c5d4f6;"/>
    <path d="M169.03,15.07c4.76-.48,6.92,4.4,9.23,7.54-2.22.76-11.09-5.84-9.23-7.54Z" style="fill: #c5d4f6;"/>
    <path d="M84.55,61.4c-1.15.03-2.33-.08-3.47,0,.16-1.74,3.31-1.74,3.47,0Z" style="fill: #c5d4f6;"/>
    <path d="M148.2,28.96c-.32-.81-1.89-1.54-1.16-3.46,10.72-2.9,21.6-.03,31.81,3.48.36-2.6-1.96-7.32,2.93-4.09,3.04,2,10.29,17.03,10.98,21.43-7.78-2.73-16.26-9.27-24.43-10.3-8.71-1.1-3.71,3.09-5.09,4.54-.48.5-9.88-.39-10.43-1.18-.17-.24,1.95-4.23,1.17-5.78,4.55,1.23,8.01,1.85,12.18-1.13,1.36-1.36.38-1.97-.63-2.9-3.35-3.11-13.03-1.9-17.34-.6Z" style="fill: #c5d4f6;"/>
    <path d="M229.78,130.91c.75.39.75.77,0,1.16v-1.16Z" style="fill: #c5d4f6;"/>
    <path d="M60.25,154.08c1.44,11.73,22.06,7.96,30.51,6.79,25.14-3.46,32.11-6.53,29.82-34.44.6-.95,16.22-3.3,17.15-2.42-.47,4.72,6.27,21.73,10.11,22.89,2.87.86,19.18.64,22.93.23,2.34-.25,21.1-4.12,22.56-4.64.79,1.56,2.53,2.74,3.2,4.32,6.79,16.02-10.74,58.74-19.63,73.65-2.87,4.82-8.29,7.97-7.87,13.55-2.98,2.29-5.73,5.97-6.94,6.95-13.96,11.24-41.46,4.02-55.45-4.15-20.92-12.2-47.24-47.44-49.86-71.72-.33-3.06-1.43-11.18,3.47-11.02ZM149.35,159.87c-4.08,0-4.07,5.37-6.84,7.62s-9.72,3.76-12.83,2.23-3.23-9.92-8.1-6.95c-.75,21.59,30.41,14.96,27.77-2.9ZM159.77,178.4c-10.98.47-24.26,1.35-34.98,3.79-3.83.87-21.25,8.17-22.86,6.6-.6-.58,1.84-5.13-3.93-3.3-6.71,2.12,2.42,6.44,2.75,6.81.22.25,2.84,4.72,3.47,5.79,4.02,6.85,2.37,10.22,11.2,14.85,24.57,12.91,45.1-1.17,50.13-26.44.6-3.04,1.94-5.76,1.15-9.26-2.4-.07-4.56,1.05-6.94,1.15Z" style="fill: #fcfcfc;"/>
    <path d="M60.25,125.11c-1.89.18-3.89-.11-5.79,0,1.37-22.78,15.42-50.22,38.42-57.11,7.62-2.28,20.33-5.17,28.07-5.49,11.54-.47,22.51,1.13,31.87,8.16,3.32,2.49,4.74,6.5,8.1,9.27,6.66,13.12-6.75,5.56-14.32,9.42-6.71,3.42-8.11,13.09.98,12.69,4.05-.18,8.18-3.97,12.86-4.62s9.91-.27,14.37,1.05c.38.39.79.75,1.16,1.16v4.63c-8.92,3.83-27.87.85-34.76,8.66-1.41,1.6-1.65,4.31-3.06,5.33-1.67,1.2-13.86,4.12-16.35,4.3-5.77.41-5.8-2.78-10.09-4.35-14.22-5.2-36.87,5.52-51.47,6.92ZM62.57,121.63c6.03-1.77,8.63-9.37,15-11.03,6.63-1.73,31.57,3.53,24.93-9.83-5.39-10.84-45.28,5.32-39.93,20.87Z" style="fill: #fcfcfc;"/>
    <path d="M108.84,347.53c-.77.85-7.06-4.46-7.98-5.33-8.55-8.05-15.15-20-26.42-24.53-6.04-2.43-21.52-5.08-25.44-9.85-9.1-11.09,20.99-33.68,30.44-26.42.97.74,8.49,18.71,10.28,22.14,7.38,14.11,16.85,27.72,19.11,43.99Z" style="fill: #fcfcfc;"/>
    <path d="M164.4,262.97c.17,3.26.61,11.27,0,13.9-1.06,4.59-13.55,11.67-18.21,12.47-7.45,1.27-26.41-.66-32.66-4.99-5.01-3.47-10.48-18.19-10.5-24.28-.01-3.06,3.94-1.86,6.13-1.46,11.01,2.02,21.8,8.77,33.83,9.07,7.8.19,13.96-3.56,21.42-4.71Z" style="fill: #fcfcfc;"/>
    <path d="M86.86,129.75c9.27-.79,15.1-.3,20.82,7.54l-5.77.58c-.87.79,9.37,13.88-4.63,16.21-5.56.93-13.07-.9-18.52-2.32l1.15-12.74c-5.59-.82-5.84,6.21-10.41,8.1-.28-3.16,1.56-8,3.47-10.43.13-.16,2.47-1.44,3.47-2.32.41-.36.82-.72,1.16-1.16,2.15-1.25,6.68-2.66,9.26-3.48ZM88.01,140.19l-5.77-1.17c-1.32,6.88,6.04,8.49,5.77,1.17Z" style="fill: #677ead;"/>
    <path d="M111.16,122.8c.68,3.14-1.56,2.3-3.62,2.69-7.56,1.4-13.22,1.91-20.68,4.26-2.58.82-7.11,2.22-9.26,3.48-.42.25-.76.82-1.16,1.16-1,.88-3.34,2.15-3.47,2.32-4.81.14-7.39,4.54-11.57,0,.36-2.87-.74-4.25,1.63-7.06,4.83-5.74,36.48-10.27,44.05-9.1,2.49.39,2.56,1.16,4.08,2.26Z" style="fill: #fcfcfc;"/>
    <path d="M69.5,147.13c.19.15-.37,1.86.09,2.21.38.28,7.65,2.04,9.17,2.43,5.45,1.41,12.96,3.24,18.52,2.32v1.16c-7,1.58-24.32,5.41-30.51,3.32-2.7-.91-3.24-7.69-3.05-10.27,1.24-.03,5.16-1.64,5.79-1.16Z" style="fill: #fcfcfc;"/>
    <path d="M35.95,120.48c.26-.76,2.29-3.84,3.47-2.32.38.5,1.99,10.64,2.2,12.32.28,2.2,1.2,4.54-2.19,3.9-1.39-5.05-2.27-8.52-3.47-13.9Z" style="fill: #fcfcfc;"/>
    <path d="M71.82,381.14c-.46,1.02-2.31-2.17-2.31-2.9v-23.75c.89-.67,2.31,2.35,2.31,2.9v23.75Z" style="fill: #677ead;"/>
    <path d="M294.01,286.14c.8,5.56,2.26,12.99,3.47,18.54-12.47-1.85-26.69-4.47-36.93-12.26s-16.71-20.02-25.5-28.92c-5.2-5.26-25.81-16.48-18.68-25.54,3.06-3.88,10.54-.22,14.28.99,15.13,4.89,27.63,12.53,39.08,23.44,7.84,7.48,14.46,18.53,24.29,23.76Z" style="fill: #fcfcfc;"/>
    <path d="M193.33,142.49c.43-.16,4.3-6,6.93-5.79,1.2,6.62,2.97,13.56,3.47,20.28.26,3.53.75,18.4.09,20.77-.36,1.3-2.75.05-3.66,1.33-1.85,2.62-2.91,15.4-4.19,19.92-4.77,16.81-13.82,24.92-26.94,35.01-.42-5.58,5-8.73,7.87-13.55,8.89-14.91,26.41-57.63,19.63-73.65-.67-1.58-2.4-2.76-3.2-4.32Z" style="fill: #c5d4f6;"/>
    <path d="M188.7,139.02v-11.59c-6.59-1.19-7,2.53-9.77,4.7-1.6,1.25-3.98.93-4.12,1.09l-3.46-5.78,1.14,10.42h-3.46c1.68-2.7-3.23-11.8-2.3-12.73.22-.22,1.84.31,2.47-.13,1.22-.86.94-2.33,2.67-2.33,2.03,0,16.59,7.76,8.19-1.08-5.35-5.63-17.82-2.75-24.92-3.43,2.99-1.84,6.26-3.28,10.02-3.39,7.7-.23,20.03,6.28,17.76-7.03,4.22.98,13.13,16,13.81,20.34,1.34,8.52-1.28,8.59-8.03,10.94Z" style="fill: #c5d4f6;"/>
    <path d="M97.28,155.23v-1.16c14.01-2.33,3.76-15.42,4.63-16.21l5.77-.58c-5.72-7.83-11.56-8.33-20.82-7.54,7.46-2.36,13.12-2.86,20.68-4.26,2.06-.38,4.3.45,3.62-2.69,3.82,2.76,4.85,6.68,5.49,11.3,2.65,19.15-3.68,17.6-19.37,21.13Z" style="fill: #c5d4f6;"/>
    <path d="M160.93,79.93c3.97,3.27,5.53.69,8.47,8.32,2.46,6.39-.19,4.49,5.42,10.21-4.46-1.33-9.78-1.69-14.37-1.05s-8.81,4.44-12.86,4.62c-9.09.4-7.69-9.26-.98-12.69,7.56-3.85,20.97,3.71,14.32-9.42Z" style="fill: #c5d4f6;"/>
    <path d="M182.91,107.74c2.28,13.31-10.06,6.8-17.76,7.03-3.76.11-7.03,1.56-10.02,3.39-.73.45-5.58,4.32-5.79,4.63h-6.94c.05-2.04-.34-3.71.6-5.75,2.87-6.24,33.48-10.8,39.9-9.31Z" style="fill: #fcfcfc;"/>
    <path d="M174.81,133.22c.14-.16,2.52.16,4.12-1.09,2.77-2.17,3.17-5.89,9.76-4.7v11.59c-3.77,1.31-18.25,4.96-21.29,4.4-.84-.15-2.23-1.7-1.85-2.07,2.25-.22,5.94-.74,7.6-2.25,2.36-2.14,1.4-5.57,1.66-5.87Z" style="fill: #fcfcfc;"/>
    <path d="M149.35,122.8c-4.69,7.22-.08,22.42,10.41,19.71-1.39,3.5-6.26,2.61-8.97,1.43-5.65-2.47-8.54-15.42-8.39-21.13h6.94Z" style="fill: #c5d4f6;"/>
    <path d="M159.76,132.06c-4.76,1.47-8.05,1.18-6.93-4.62,3.24-.49,6.99.76,6.93,4.62Z" style="fill: #c5d4f6;"/>
    <path d="M175.97,104.26v-4.63c.66.74,2.79.91,2.31,2.88-.62.83-1.37,1.35-2.31,1.76Z" style="fill: #c5d4f6;"/>
    <path d="M33.63,167.98c-.61,3.42.71,7.92-1.16,11.58-.16-.16-1.5.29-2.03-.23-2.17-2.08-1.27-8.93-1.44-11.93l4.63.58Z" style="fill: #fcfcfc;"/>
    <path d="M30.16,157.55c.42.28,5.54.22,6.91,1.2,1.18,2.68-1.97,4.76-2.29,5.75h-5.79s1.16-6.95,1.16-6.95Z" style="fill: #fcfcfc;"/>
    <path d="M159.77,178.4c2.38-.1,4.54-1.22,6.94-1.15.79,3.5-.55,6.23-1.15,9.26-15.46,18.16-40.35,27.16-61.33,11.58-.63-1.07-3.25-5.54-3.47-5.79,6.31-4.19,14.26-1.59,21.39-2.34,9.69-1.01,20.69-3.82,29.81-7.23,2.59-.97,6.39-1.82,7.82-4.34Z" style="fill: #677ead;"/>
    <path d="M104.22,198.1c20.98,15.58,45.88,6.58,61.33-11.58-5.03,25.27-25.56,39.35-50.13,26.44-8.83-4.64-7.18-8.01-11.2-14.85Z" style="fill: #c5d4f6;"/>
    <path d="M159.77,178.4c-1.43,2.52-5.23,3.37-7.82,4.34-9.12,3.41-20.12,6.22-29.81,7.23-7.13.74-15.08-1.86-21.39,2.34-.33-.37-9.46-4.69-2.75-6.81,5.77-1.83,3.34,2.72,3.93,3.3,1.61,1.57,19.03-5.73,22.86-6.6,10.72-2.45,24-3.33,34.98-3.79Z" style="fill: #c5d4f6;"/>
    <path d="M149.35,159.87c2.63,17.86-28.52,24.49-27.77,2.9,4.88-2.97,4.95,5.41,8.1,6.95s10.16-.07,12.83-2.23,2.77-7.61,6.84-7.62Z" style="fill: #c5d4f6;"/>
    <path d="M62.57,121.63c-5.35-15.55,34.54-31.71,39.93-20.87,6.65,13.36-18.3,8.1-24.93,9.83-6.37,1.66-8.97,9.26-15,11.03Z" style="fill: #c5d4f6;"/>
    <path d="M88.01,140.19c.27,7.32-7.09,5.71-5.77-1.17l5.77,1.17Z" style="fill: #c5d4f6;"/>
    <path d="M76.45,134.38c.39-.34.73-.91,1.16-1.16-.34.44-.74.8-1.16,1.16Z" style="fill: #c5d4f6;"/>
  </g>
</svg>